# xmcd
#
# Track frame offsets:
#	150
#	10077
#	22264
#	30289
#	43736
#	60579
#	75364
#	89104
#	99560
#	107908
#	116636
#	129814
#
# Disc length: 1854 seconds
#
# Revision: 0
# Processed by: cddbd v1.5.1PL2 Copyright (c) Steve Scherf et al.
# Submitted via: dBpowerAMP V4.0
#
DISCID=90073c0c
DTITLE=Willie Nelson - Broken Promises
DYEAR=2002
DGENRE=Country
TTITLE0=Broken Promises
TTITLE1=I Can't Find The Time
TTITLE2=Things To Remember
TTITLE3=Undo The Right
TTITLE4=I Let My Mind Wander
TTITLE5=And So Will You My Love
TTITLE6=Home Is Where You Are Happy
TTITLE7=I Feel Sorry For Him
TTITLE8=Slow Down Old World
TTITLE9=Why Are You Picking On Me
TTITLE10=You'll Always Have Someone
TTITLE11=One Step Beyond
EXTD=Delta Exclusive: made in U.K. 2002 .\nToonDoof is my name.
EXTT0=
EXTT1=
EXTT2=
EXTT3=
EXTT4=
EXTT5=
EXTT6=
EXTT7=
EXTT8=
EXTT9=
EXTT10=
EXTT11=
PLAYORDER=
